<svg xmlns="http://www.w3.org/2000/svg" xmlns:xlink="http://www.w3.org/1999/xlink" width="500" zoomAndPan="magnify" viewBox="0 0 375 374.999991" height="500" preserveAspectRatio="xMidYMid meet" version="1.0"><path fill="rgb(58.428955%, 87.449646%, 83.918762%)" d="M 187.5 92.8125 C 225.90625 92.8125 257.144531 124.054688 257.144531 162.457031 C 257.144531 200.863281 225.90625 232.101562 187.5 232.101562 C 149.097656 232.101562 117.855469 200.863281 117.855469 162.457031 C 117.855469 124.054688 149.097656 92.8125 187.5 92.8125 " fill-opacity="1" fill-rule="nonzero"/><path fill="rgb(58.428955%, 87.449646%, 83.918762%)" d="M 187.5 0 C 290.890625 0 375 84.109375 375 187.5 C 375 239.789062 353.484375 287.144531 318.84375 321.183594 C 315.757812 310.21875 311.15625 299.769531 305.113281 290.023438 C 297.925781 278.4375 288.914062 268.1875 278.328125 259.5625 C 267.648438 250.855469 255.695312 244.070312 242.800781 239.398438 C 235.246094 236.65625 227.476562 234.683594 219.558594 233.484375 C 228.023438 229.664062 235.8125 224.292969 242.574219 217.535156 C 257.289062 202.820312 265.386719 183.261719 265.386719 162.457031 C 265.386719 141.652344 257.289062 122.09375 242.574219 107.382812 C 227.863281 92.671875 208.304688 84.570312 187.5 84.570312 C 166.695312 84.570312 147.136719 92.671875 132.425781 107.382812 C 117.714844 122.09375 109.613281 141.652344 109.613281 162.457031 C 109.613281 183.261719 117.714844 202.820312 132.425781 217.535156 C 139.191406 224.296875 146.976562 229.664062 155.445312 233.484375 C 147.523438 234.683594 139.753906 236.660156 132.203125 239.398438 C 119.308594 244.070312 107.355469 250.855469 96.675781 259.5625 C 86.089844 268.1875 77.078125 278.4375 69.890625 290.023438 C 63.84375 299.769531 59.242188 310.222656 56.164062 321.1875 C 21.515625 287.152344 0 239.792969 0 187.5 C 0 84.109375 84.113281 0 187.5 0 " fill-opacity="1" fill-rule="nonzero"/><path fill="rgb(58.428955%, 87.449646%, 83.918762%)" d="M 201.105469 240.34375 C 253.535156 240.34375 299.769531 276.886719 311.996094 327.585938 C 278.863281 357.066406 235.234375 375 187.5 375 C 139.765625 375 96.140625 357.066406 63.003906 327.589844 C 75.230469 276.886719 121.46875 240.34375 173.894531 240.34375 L 201.105469 240.34375 " fill-opacity="1" fill-rule="nonzero"/></svg>