<svg xmlns="http://www.w3.org/2000/svg" viewBox="0 0 492.67 147.67" xmlns:v="https://vecta.io/nano"><g fill="#67c6bd"><path d="M37.78 43.78h22.67v92.44H37.78z"/><path d="M57.33 43.78h57.78v20.44H57.33zm0 43.33h51.11v16.44H57.33z"/></g><g fill="#262c2d"><path d="M69.33 126.44h59.33v10.67H69.33z"/><path d="M120.22 43.78h8.44v93.33h-8.44z"/></g><path d="M23.746 50.83l24.602-17.704 7.29 10.13L31.036 60.96zm93.858-19.781l23.344 16.799-6.694 9.302-23.344-16.799z" fill="#fff"/><path d="M191.35 76v6.21h13.73v7.14h-13.73v12h-7.14V68.87h21.42V76zm19.99 25.33V68.87h7.14v25.32h13.82v7.14zm33.94-6.93l-3 6.93h-7.77l14.07-32.46H256l14.11 32.46h-7.81l-3-6.93zm7-16.12l-3.91 9h7.86zM294.79 76h-9.65v25.32H278V76h-9.61v-7.13h26.41z" fill="#67c6bd"/><path d="M328.86 101.75h-.59a20.57 20.57 0 0 1-3.89-.48 19 19 0 0 1-3.71-1.2 15.29 15.29 0 0 1-3.32-2 9.5 9.5 0 0 1-2.23-2.57l6.09-3.52a3.57 3.57 0 0 0 1 1 8.72 8.72 0 0 0 1.64.93 11 11 0 0 0 2.08.67 10.41 10.41 0 0 0 2.31.25h.21a8.64 8.64 0 0 0 2.33-.17 10.85 10.85 0 0 0 2.71-.88c1.53-.7 2.38-1.64 2.52-2.81a1.6 1.6 0 0 0-.09-.78 1.58 1.58 0 0 0-.33-.48 4.72 4.72 0 0 0-2.31-1.26 16 16 0 0 0-4.54-.59c-.48 0-1.16 0-2-.08a20.52 20.52 0 0 1-2.87-.42 12.62 12.62 0 0 1-6.14-3.15 7.8 7.8 0 0 1-2.18-6.22h0a9.76 9.76 0 0 1 .82-3.32 8.07 8.07 0 0 1 2-2.73 12 12 0 0 1 5.51-2.9A19 19 0 0 1 333 69a14.93 14.93 0 0 1 4.52 1.85 10.19 10.19 0 0 1 3 2.82l-6 3.78a3.6 3.6 0 0 0-1-.89 7.9 7.9 0 0 0-2.23-.84 13 13 0 0 0-2.9-.35 9.67 9.67 0 0 0-2.73.31 5.84 5.84 0 0 0-1.7.63 3.36 3.36 0 0 0-.92.78 1.9 1.9 0 0 0-.4.75 2.49 2.49 0 0 0-.09.53 1.7 1.7 0 0 0 .11.69 1.18 1.18 0 0 0 .23.36 5 5 0 0 0 2.27 1 15.52 15.52 0 0 0 3.61.4 21.54 21.54 0 0 1 7.12 1.07 12 12 0 0 1 5 3.09 8.71 8.71 0 0 1 1.8 3 7.91 7.91 0 0 1 .38 3.55 9.39 9.39 0 0 1-1.89 4.89 12.15 12.15 0 0 1-4.49 3.55 18.38 18.38 0 0 1-3.81 1.3 17.72 17.72 0 0 1-4.02.48zm49.05-32.88v32.46h-7.14V87.05h-15.33v14.28h-7.14V68.87h7.14v11h15.33v-11zm14.95 25.53l-3 6.93h-7.77l14.07-32.46h7.43l14.11 32.46h-7.81l-3-6.93zm7-16.12l-3.9 9h7.85zm47.77 23.05h-8.74l-6-8.52h-3.7v8.52h-7.09V68.87h12a17.56 17.56 0 0 1 5.07.69 12.65 12.65 0 0 1 4.05 2 13 13 0 0 1 1.74 1.74 9.07 9.07 0 0 1 1.28 2 11.51 11.51 0 0 1 1.1 5 12.94 12.94 0 0 1-.93 4.87 11.32 11.32 0 0 1-2.65 4 10.93 10.93 0 0 1-3.06 2.18zm-18.4-15.66h4.88a6 6 0 0 0 4.62-1.56 5 5 0 0 0 1.42-3.73c0-2.92-2-4.37-6.09-4.37h-4.83zM459.64 76v4.83h13.15V88h-13.15v6.21h13.61v7.14H452.5V68.87h20.75V76z" fill="#262c2d"/><g fill="#262d2c"><path d="M5.529 61.446L84.173 4.852l6.232 8.661-78.643 56.594z"/><path d="M157.139 70.118L78.496 13.524l6.232-8.661 78.643 56.594z"/></g></svg>