<svg xmlns="http://www.w3.org/2000/svg" viewBox="0 0 492.67 147.67"><defs><style>.cls-1{fill:#67c6bd;}.cls-2{fill:#262c2d;}.cls-3{fill:#fff;}.cls-4{fill:#262d2c;}</style></defs><g id="Layer_1" data-name="Layer 1"><rect class="cls-1" x="37.78" y="43.78" width="22.67" height="92.44"/><rect class="cls-1" x="57.33" y="43.78" width="57.78" height="20.44"/><rect class="cls-1" x="57.33" y="87.11" width="51.11" height="16.44"/><rect class="cls-2" x="69.33" y="126.44" width="59.33" height="10.67"/><rect class="cls-2" x="120.22" y="43.78" width="8.44" height="93.33"/></g><g id="Layer_2" data-name="Layer 2"><rect class="cls-3" x="24.54" y="40.81" width="30.31" height="12.48" transform="translate(-20.01 32.04) rotate(-35.74)"/><rect class="cls-3" x="111.56" y="38.36" width="28.76" height="11.46" transform="translate(49.46 -65.25) rotate(35.74)"/><path class="cls-1" d="M191.35,76v6.21h13.73v7.14H191.35v12h-7.14V68.87h21.42V76Z"/><path class="cls-1" d="M211.34,101.33V68.87h7.14V94.19H232.3v7.14Z"/><path class="cls-1" d="M245.28,94.4l-3,6.93h-7.77l14.07-32.46H256l14.11,32.46h-7.81l-3-6.93Zm7-16.12-3.91,9h7.86Z"/><path class="cls-1" d="M294.79,76h-9.65v25.32H278V76h-9.61V68.87h26.41Z"/><path class="cls-2" d="M328.86,101.75h-.59a20.57,20.57,0,0,1-3.89-.48,19,19,0,0,1-3.71-1.2,15.29,15.29,0,0,1-3.32-2,9.5,9.5,0,0,1-2.23-2.57l6.09-3.52a3.57,3.57,0,0,0,1,1,8.72,8.72,0,0,0,1.64.93,11,11,0,0,0,2.08.67,10.41,10.41,0,0,0,2.31.25h.21a8.64,8.64,0,0,0,2.33-.17,10.85,10.85,0,0,0,2.71-.88c1.53-.7,2.38-1.64,2.52-2.81a1.6,1.6,0,0,0-.09-.78,1.58,1.58,0,0,0-.33-.48,4.72,4.72,0,0,0-2.31-1.26,16,16,0,0,0-4.54-.59c-.48,0-1.16,0-2-.08a20.52,20.52,0,0,1-2.87-.42,12.62,12.62,0,0,1-6.14-3.15,7.8,7.8,0,0,1-2.18-6.22v0a9.76,9.76,0,0,1,.82-3.32,8.07,8.07,0,0,1,2-2.73,12,12,0,0,1,5.51-2.9A19,19,0,0,1,333,69a14.93,14.93,0,0,1,4.52,1.85,10.19,10.19,0,0,1,3,2.82l-6,3.78a3.6,3.6,0,0,0-1-.89,7.9,7.9,0,0,0-2.23-.84,13,13,0,0,0-2.9-.35,9.67,9.67,0,0,0-2.73.31,5.84,5.84,0,0,0-1.7.63,3.36,3.36,0,0,0-.92.78,1.9,1.9,0,0,0-.4.75,2.49,2.49,0,0,0-.09.53,1.7,1.7,0,0,0,.11.69,1.18,1.18,0,0,0,.23.36,5,5,0,0,0,2.27,1,15.52,15.52,0,0,0,3.61.4,21.54,21.54,0,0,1,7.12,1.07,12,12,0,0,1,5,3.09,8.71,8.71,0,0,1,1.8,3,7.91,7.91,0,0,1,.38,3.55,9.39,9.39,0,0,1-1.89,4.89,12.15,12.15,0,0,1-4.49,3.55,18.38,18.38,0,0,1-3.81,1.3A17.72,17.72,0,0,1,328.86,101.75Z"/><path class="cls-2" d="M377.91,68.87v32.46h-7.14V87.05H355.44v14.28H348.3V68.87h7.14v11h15.33v-11Z"/><path class="cls-2" d="M392.86,94.4l-3,6.93h-7.77l14.07-32.46h7.43l14.11,32.46h-7.81l-3-6.93Zm7-16.12-3.9,9h7.85Z"/><path class="cls-2" d="M447.63,101.33h-8.74l-6-8.52h-3.7v8.52H422.1V68.87h12a17.56,17.56,0,0,1,5.07.69,12.65,12.65,0,0,1,4.05,2,13,13,0,0,1,1.74,1.74,9.07,9.07,0,0,1,1.28,2,11.51,11.51,0,0,1,1.1,5,12.94,12.94,0,0,1-.93,4.87,11.32,11.32,0,0,1-2.65,4,10.93,10.93,0,0,1-3.06,2.18Zm-18.4-15.66h4.88a6,6,0,0,0,4.62-1.56,5,5,0,0,0,1.42-3.73c0-2.92-2-4.37-6.09-4.37h-4.83Z"/><path class="cls-2" d="M459.64,76v4.83h13.15V88H459.64v6.21h13.61v7.14H452.5V68.87h20.75V76Z"/></g><g id="Layer_3" data-name="Layer 3"><rect class="cls-4" x="-0.48" y="32.15" width="96.89" height="10.67" transform="translate(-12.86 35.07) rotate(-35.74)"/><rect class="cls-4" x="72.48" y="32.15" width="96.89" height="10.67" transform="translate(197.19 138.55) rotate(-144.26)"/></g></svg>